<?xml version="1.0" encoding="UTF-8" standalone="no"?>
<!-- Created with Inkscape (http://www.inkscape.org/) -->

<svg
   version="1.1"
   id="svg2"
   width="666.66669"
   height="666.66669"
   viewBox="0 0 666.66669 666.66669"
   sodipodi:docname="6919618_3493059.eps"
   xmlns:inkscape="http://www.inkscape.org/namespaces/inkscape"
   xmlns:sodipodi="http://sodipodi.sourceforge.net/DTD/sodipodi-0.dtd"
   xmlns="http://www.w3.org/2000/svg"
   xmlns:svg="http://www.w3.org/2000/svg">
  <defs
     id="defs6" />
  <sodipodi:namedview
     id="namedview4"
     pagecolor="#ffffff"
     bordercolor="#000000"
     borderopacity="0.25"
     inkscape:showpageshadow="2"
     inkscape:pageopacity="0.0"
     inkscape:pagecheckerboard="0"
     inkscape:deskcolor="#d1d1d1" />
  <g
     id="g8"
     inkscape:groupmode="layer"
     inkscape:label="ink_ext_XXXXXX"
     transform="matrix(1.3333333,0,0,-1.3333333,0,666.66667)">
    <g
       id="g10"
       transform="scale(0.1)">
      <path
         d="M 0,0 H 5000 V 5000 H 0 Z"
         style="fill:#ffffff;fill-opacity:1;fill-rule:nonzero;stroke:none"
         id="path12" />
      <path
         d="M 4743.7,766.48 H 256.301 c -17.285,0 -31.301,14.02 -31.301,31.309 0,17.281 14.016,31.301 31.301,31.301 H 2850.9 c 3.58,-14.801 15.85,-26.692 31.83,-28.961 1.83,-0.258 3.64,-0.387 5.43,-0.387 17.57,0 33.06,12.11 37.17,29.348 H 4743.7 c 17.29,0 31.3,-14.02 31.3,-31.301 0,-17.289 -14.01,-31.309 -31.3,-31.309"
         style="fill:#fcd2c8;fill-opacity:1;fill-rule:nonzero;stroke:none"
         id="path14" />
      <path
         d="m 1702.15,3161.38 340.8,-54.71 -176.76,-233.77 135.74,-21.79 -313.36,-344.85 63.33,292.47 -105.26,16.89 55.51,345.76"
         style="fill:#fbc948;fill-opacity:1;fill-rule:nonzero;stroke:none"
         id="path16" />
      <path
         d="m 1866.19,2872.9 176.76,233.77 -45.1,7.24 -176.76,-233.77 45.1,-7.24"
         style="fill:#fce486;fill-opacity:1;fill-rule:nonzero;stroke:none"
         id="path18" />
      <path
         d="m 1704.74,2580.93 -16.17,-74.67 313.36,344.85 -45.1,7.24 -252.09,-277.42"
         style="fill:#fce486;fill-opacity:1;fill-rule:nonzero;stroke:none"
         id="path20" />
      <path
         d="m 531.891,1051.05 -60.946,-59.081 c -23.113,-22.41 -23.683,-59.309 -1.281,-82.418 l 134.449,-138.68 c 11.758,-12.133 32.008,-8.769 39.235,6.488 4.164,8.801 2.652,19.231 -3.836,26.481 l -11.992,12.859 c -41.18,44.153 -43.891,128.52 -9.633,178.242 l -85.996,56.109"
         style="fill:#f9ab97;fill-opacity:1;fill-rule:nonzero;stroke:none"
         id="path22" />
      <path
         d="m 643.348,777.359 c 4.164,8.801 2.652,19.231 -3.836,26.481 l -11.992,12.859 c -32.872,35.25 -42.563,84.93 -27.747,128.852 -27.121,-10.91 -59.699,-8.692 -86.293,17.008 -15.734,15.211 -22.609,31.992 -23.058,48.291 l -19.477,-18.881 c -23.113,-22.41 -23.683,-59.309 -1.281,-82.418 l 134.449,-138.68 c 11.758,-12.133 32.008,-8.769 39.235,6.488"
         style="fill:#192e3b;fill-opacity:1;fill-rule:nonzero;stroke:none"
         id="path24" />
      <path
         d="M 896.375,2232.89 1078.61,1872.9 c 21.43,-42.33 19,-92.81 -6.38,-132.89 L 628.551,975.852 490.355,1065.85 c 0,0 261.071,577.04 336.875,657.04 l -98.863,133.33 -18.66,376.67 h 186.668"
         style="fill:#ef2d3c;fill-opacity:1;fill-rule:nonzero;stroke:none"
         id="path26" />
      <path
         d="m 1014.09,911.512 -2.76,-84.84 c -1.05,-32.172 24.18,-59.102 56.35,-60.152 l 193.05,-6.301 c 16.88,-0.547 29.12,15.929 23.7,31.929 -3.11,9.223 -11.45,15.684 -21.16,16.383 l -17.56,0.91 c -60.29,3.141 -120.86,61.918 -130.78,121.481 l -100.84,-19.41"
         style="fill:#f9ab97;fill-opacity:1;fill-rule:nonzero;stroke:none"
         id="path28" />
      <path
         d="m 1284.43,792.148 c -3.11,9.223 -11.45,15.684 -21.16,16.383 l -17.56,0.91 c -48.12,2.508 -89.62,31.5 -109.48,73.368 -11.93,-26.68 -36.9,-47.719 -73.88,-47.719 -21.88,0 -38.49,7.289 -50.14,18.699 l -0.88,-27.117 c -1.05,-32.172 24.18,-59.102 56.35,-60.152 l 193.05,-6.301 c 16.88,-0.547 29.12,15.929 23.7,31.929"
         style="fill:#192e3b;fill-opacity:1;fill-rule:nonzero;stroke:none"
         id="path30" />
      <path
         d="m 825.539,2910.39 159.008,99.8 86.623,-272.3 c 0,0 38.7,31.08 58.98,51.78 20.38,20.7 39.71,41.61 57.76,61.84 18.07,20.23 34.39,40.13 49.21,58.72 7.3,9.4 14.29,18.4 20.94,26.97 6.7,8.54 12.82,16.82 17.28,25.45 8.76,17.35 14.43,33.68 22.15,45.16 7.28,11.76 14.97,19.75 21.01,24.7 5.94,5.03 10.15,6.93 10.15,6.93 l 1.8,0.82 c 4.42,1.97 9.3,3.1 14.45,3.18 20.35,0.31 37.11,-15.95 37.41,-36.3 0,0 0.08,-4.96 -1.85,-12.73 -1.81,-7.84 -5.73,-18.56 -13.41,-30.51 -7.24,-12.22 -19.89,-24.58 -32.48,-39.92 -6.21,-7.72 -11.51,-16.79 -16.94,-26.47 -5.6,-9.59 -11.48,-19.67 -17.62,-30.2 -12.4,-21.11 -25.84,-43.99 -40.05,-68.18 -14.34,-24.29 -29.93,-49.78 -47.18,-75.91 -17.39,-26.06 -35.92,-53.04 -58.4,-79.7 -11.42,-13.23 -23.46,-26.73 -38.15,-39.8 -7.41,-6.55 -27.8,-33.38 -65.16,-36.65 -37.36,-3.27 -65.312,16.14 -105.347,61.64 -40.039,45.5 -120.184,281.68 -120.184,281.68"
         style="fill:#f9ab97;fill-opacity:1;fill-rule:nonzero;stroke:none"
         id="path32" />
      <path
         d="m 370.215,2269.75 c 0,0 -8.828,-163.75 39.492,-230.19 160,-220 319.086,-444.88 343.66,-580 41.836,-230 226.817,-579.83 226.817,-579.83 63.296,6.879 156.976,54.719 156.976,54.719 0,0 -197.277,593.241 -245.183,770.471 -47.907,177.24 -130.625,464.55 -157.946,565.35 -3.097,11.42 -5.773,22.09 -8.25,32.41 -95.883,-31.97 -355.566,-32.93 -355.566,-32.93"
         style="fill:#f1453f;fill-opacity:1;fill-rule:nonzero;stroke:none"
         id="path34" />
      <path
         d="m 460.504,3214.48 c 110.453,10.91 88.949,160.89 88.949,160.89 l 79.09,-54.49 78.641,-2.43 c 0,0 -10.59,-99.95 106.988,-103.51 38.207,-1.15 114.879,-125.26 114.879,-125.26 h -539.16 c 0,0 39.914,92.45 70.613,124.8"
         style="fill:#f9ab97;fill-opacity:1;fill-rule:nonzero;stroke:none"
         id="path36" />
      <path
         d="m 343.113,2887.92 -100.906,29.37 c 31.969,142.72 54.496,209.2 109.406,250.59 55.582,41.89 124.766,51.28 124.766,51.28 0,0 29.816,-93.85 152.98,-93.85 123.164,0 149.821,94.22 149.821,94.22 0,0 79.66,4.93 129.293,-43.86 49.632,-48.8 58.367,-61.93 88.679,-171.78 l -81.543,-75.97 c 0,0 -24.105,-193.36 -17.355,-380.41 6.746,-187.04 22.262,-325.37 22.262,-325.37 0,0 -85.715,-43.84 -262.188,-43.84 -225.344,0 -315.89,36.21 -315.89,36.21 l 0.675,673.41"
         style="fill:#192e3b;fill-opacity:1;fill-rule:nonzero;stroke:none"
         id="path38" />
      <path
         d="m 870.605,3548.7 c -6.886,98.21 -66.457,151.64 -177.531,156.73 -66.199,3.04 -128.851,-30.3 -166.902,-84.56 l -5.496,-7.83 C 489.215,3568.19 477.57,3494.5 490.441,3441.25 l 70.754,-112.62 -21.562,-148.5 c 0,0 119.172,-55.85 156,16.99 l -0.043,87.35 c 0,0 61.375,-28.52 108.933,-6.18 24.875,11.69 80.141,69.99 66.082,270.41"
         style="fill:#f9ab97;fill-opacity:1;fill-rule:nonzero;stroke:none"
         id="path40" />
      <path
         d="m 756.637,3382.51 c -5.754,-1.06 -8.379,-8.24 -4.235,-12.37 12.133,-12.07 29.727,-18.23 47.844,-14.88 17.789,3.28 31.848,14.93 39.004,30.13 2.66,5.65 -1.898,12 -8.047,10.87 l -74.566,-13.75"
         style="fill:#ffffff;fill-opacity:1;fill-rule:nonzero;stroke:none"
         id="path42" />
      <path
         d="m 400.484,2178.49 c 1.907,-16.63 1.746,-31.6 5.239,-42.99 1.195,-4.74 2.754,-8.82 4.418,-12.53 26.191,16.46 47.894,37.67 67.761,60.84 -1.98,4.27 -4.004,8.66 -5.968,13.35 -3.18,7.73 -5.098,16.34 -6.567,25.57 -1.633,9.18 -3.347,18.83 -5.14,28.9 -7.168,40.29 -13.504,87.82 -20.559,138.68 -3.594,25.41 -7.309,51.67 -11.082,78.35 -4.102,26.6 -8.77,53.49 -13.797,80.28 l -3.871,20.06 -0.492,2.5 -0.235,1.59 -0.418,3.11 -0.554,6.24 c -0.555,8.05 -0.094,17.11 1.07,23.93 1.766,12.79 3.516,25.47 5.246,38 1.707,13.03 3.391,25.89 5.051,38.55 6.629,50.62 12.262,97.91 16.644,138.48 1.754,15.39 4.524,43.09 4.524,43.09 l -170.856,44.45 c 0,0 -2.281,-50.22 -3.41,-73.82 -2.191,-40.75 -4.226,-88.33 -5.812,-139.35 -0.395,-12.76 -0.801,-25.73 -1.207,-38.86 -0.332,-13.62 -0.672,-27.41 -1.012,-41.31 -0.262,-19.91 1.59,-37.95 5.418,-56.64 0.941,-4.61 2.047,-9.18 3.234,-13.73 l 1.903,-6.79 1.797,-5.79 6.437,-19.39 c 8.723,-25.83 17.805,-51.56 27.238,-76.76 9.758,-25.12 19.364,-49.84 28.657,-73.76 18.726,-47.81 36.449,-92.37 49.906,-131.01 3.363,-9.66 6.59,-18.92 9.656,-27.73 3.231,-8.76 5.77,-17.21 6.781,-25.51"
         style="fill:#f9ab97;fill-opacity:1;fill-rule:nonzero;stroke:none"
         id="path44" />
      <path
         d="m 514.762,3402.54 c 0,0 -57.555,90.35 -75.055,130.35 -17.5,40 -36.664,138.33 73.785,203.33 84.832,49.93 207.559,154.4 236.887,35.53 0,0 50.637,83.41 122.484,49.77 71.844,-33.63 98.032,-120.32 56.188,-174.48 -41.844,-54.15 -304.344,-59.9 -304.344,-59.9 0,0 12.5,-117.62 -30,-123.43 -42.5,-5.82 -74.891,60.97 -79.945,-61.17"
         style="fill:#486abc;fill-opacity:1;fill-rule:nonzero;stroke:none"
         id="path46" />
      <path
         d="m 587.762,3470.96 c 0,-21.16 -17.153,-38.31 -38.309,-38.31 -21.16,0 -38.312,17.15 -38.312,38.31 0,21.16 17.152,38.31 38.312,38.31 21.156,0 38.309,-17.15 38.309,-38.31"
         style="fill:#f9ab97;fill-opacity:1;fill-rule:nonzero;stroke:none"
         id="path48" />
      <path
         d="m 1279.54,2887.51 -40.48,53.76 c -3.41,4.54 -4.27,10.51 -2.27,15.83 l 58.29,154.65 c 4.62,12.23 20.91,14.57 28.77,4.12 l 40.48,-53.76 c 3.42,-4.54 4.27,-10.51 2.27,-15.83 l -58.29,-154.65 c -4.61,-12.23 -20.91,-14.57 -28.77,-4.12"
         style="fill:#192e3b;fill-opacity:1;fill-rule:nonzero;stroke:none"
         id="path50" />
      <path
         d="m 1302.07,3088.73 -45.17,-121.16 37.36,-50.28 46.51,123.32 -38.7,48.12"
         style="fill:#cbdff4;fill-opacity:1;fill-rule:nonzero;stroke:none"
         id="path52" />
      <path
         d="m 712.512,3278.16 c 0,0 -43.762,5.59 -68.762,18.09 0,0 45.02,-45.77 83.137,-44.76 l -14.375,26.67"
         style="fill:#f79685;fill-opacity:1;fill-rule:nonzero;stroke:none"
         id="path54" />
      <path
         d="m 2359.07,4240.02 c -161.4,0 -281.6,-150.81 -241.14,-319.2 24.02,-100 110.26,-172.44 212.26,-185.54 87.85,-11.28 154.87,19.04 208.3,73.28 l 64.45,-91.83 v 287.4 c 0,131.73 -109.78,235.89 -243.87,235.89"
         style="fill:#8ab3e3;fill-opacity:1;fill-rule:nonzero;stroke:none"
         id="path56" />
      <path
         d="m 2411.55,3887.5 h -143.02 c -17.28,0 -31.29,14.01 -31.29,31.29 v 92.36 c 0,17.28 14.01,31.29 31.29,31.29 h 26.81 l -4.92,8.42 c -9.06,15.49 -13.84,33.12 -13.84,51.08 v 5.04 c 0,13.16 10.67,23.83 23.83,23.83 12.98,0 23.58,-10.4 23.82,-23.38 0.11,-11.88 4.37,-23.35 12.05,-32.41 12.3,-14.52 30.37,-22.89 49.4,-22.89 h 25.87 V 3887.5"
         style="fill:#ffffff;fill-opacity:1;fill-rule:nonzero;stroke:none"
         id="path58" />
      <path
         d="m 2426.33,3881.26 h 32.9 c 14.1,0 25.53,11.44 25.53,25.54 v 130.85 c 0,14.1 -11.43,25.53 -25.53,25.53 h -32.9 c -14.1,0 -25.53,-11.43 -25.53,-25.53 V 3906.8 c 0,-14.11 11.43,-25.54 25.53,-25.54"
         style="fill:#192e3b;fill-opacity:1;fill-rule:nonzero;stroke:none"
         id="path60" />
      <path
         d="m 1433.34,3861.05 c 126.31,0 226.33,-102.39 226.33,-228.7 0,-126.3 -103.58,-228.69 -229.88,-228.69 -63.76,0 -117.24,26.11 -158.7,68.21 L 1210,3389.03 v 259.24 c 0,118.82 102.4,212.78 223.34,212.78"
         style="fill:#f1453f;fill-opacity:1;fill-rule:nonzero;stroke:none"
         id="path62" />
      <path
         d="m 1437.52,3530.71 -101.43,101.43 c -19.85,19.85 -19.85,52.03 0,71.89 19.85,19.85 52.04,19.85 71.89,0 l 29.54,-29.54 29.54,29.54 c 19.85,19.85 52.04,19.85 71.89,0 19.85,-19.86 19.85,-52.04 0,-71.89 l -101.43,-101.43"
         style="fill:#f1453f;fill-opacity:1;fill-rule:nonzero;stroke:none"
         id="path64" />
      <path
         d="m 1433.34,3861.05 c 126.31,0 226.33,-102.39 226.33,-228.7 0,-126.3 -103.58,-228.69 -229.88,-228.69 -63.76,0 -117.24,26.11 -158.7,68.21 L 1210,3389.03 v 259.24 c 0,118.82 102.4,212.78 223.34,212.78"
         style="fill:#f1453f;fill-opacity:1;fill-rule:nonzero;stroke:none"
         id="path66" />
      <path
         d="m 1437.52,3530.71 -101.43,101.43 c -19.85,19.85 -19.85,52.03 0,71.89 19.85,19.85 52.04,19.85 71.89,0 l 29.54,-29.54 29.54,29.54 c 19.85,19.85 52.04,19.85 71.89,0 19.85,-19.86 19.85,-52.04 0,-71.89 l -101.43,-101.43"
         style="fill:#ffffff;fill-opacity:1;fill-rule:nonzero;stroke:none"
         id="path68" />
      <path
         d="m 1847.97,2298.34 c 0,-57.85 46.89,-104.74 104.74,-104.74 57.84,0 104.74,46.89 104.74,104.74 0,57.85 -46.9,104.74 -104.74,104.74 -57.85,0 -104.74,-46.89 -104.74,-104.74"
         style="fill:#ef2d3c;fill-opacity:1;fill-rule:nonzero;stroke:none"
         id="path70" />
      <path
         d="m 1750,1182.35 211.44,-0.74 211.44,0.74 114.73,-221.678 c 0,0 -151.01,-144.992 -326.17,-144.992 -175.16,0 -326.17,144.992 -326.17,144.992 L 1750,1182.35"
         style="fill:#719fda;fill-opacity:1;fill-rule:nonzero;stroke:none"
         id="path72" />
      <path
         d="m 1660.68,852.422 -62.31,39.488 c -23.63,14.981 -54.93,7.969 -69.91,-15.66 l -89.87,-141.77 c -7.86,-12.398 -0.92,-28.832 13.45,-31.839 8.28,-1.731 16.79,1.668 21.6,8.629 l 8.43,12.742 c 28.95,43.758 84.43,61.508 133.4,42.66 l 45.21,85.75"
         style="fill:#e68d3f;fill-opacity:1;fill-rule:nonzero;stroke:none"
         id="path74" />
      <path
         d="m 1452.04,702.641 c 8.28,-1.731 16.79,1.668 21.6,8.629 l 8.43,12.742 c 23.11,34.929 63.12,53.218 103.24,49.609 -14.72,20.699 -19.46,48.688 -3.15,76.379 9.65,16.379 22.44,25.602 36.12,29.289 l -19.91,12.621 c -23.63,14.981 -54.93,7.969 -69.91,-15.66 l -89.87,-141.77 c -7.86,-12.398 -0.92,-28.832 13.45,-31.839"
         style="fill:#192e3b;fill-opacity:1;fill-rule:nonzero;stroke:none"
         id="path76" />
      <path
         d="m 2148.6,1761.14 c -116.39,3.52 -105.91,102.46 -105.91,102.46 l -77.84,2.4 -77.85,-2.4 c 0,0 10.49,-98.94 -105.9,-102.46 -37.82,-1.14 -113.72,-123.99 -113.72,-123.99 h 533.71 c 0,0 -35.08,123.46 -52.49,123.99"
         style="fill:#e68d3f;fill-opacity:1;fill-rule:nonzero;stroke:none"
         id="path78" />
      <path
         d="m 1883.29,1832.78 c -2.26,-9.22 -5.83,-19.48 -11.59,-29.32 36.45,-79.06 137.46,-89.1 182.84,5.42 -3.47,5.84 -5.99,14.86 -7.8,23.9 h -163.45"
         style="fill:#e97a22;fill-opacity:1;fill-rule:nonzero;stroke:none"
         id="path80" />
      <path
         d="m 1790.21,2097.76 c 10.37,110.52 91.22,173.95 170.77,172.66 79.55,-1.27 158.83,-67.27 166.51,-178.07 4.5,-64.9 -9.63,-134.85 -19.81,-175.06 -6.06,-23.93 -17.38,-45.67 -33.09,-62.84 -36,-39.35 -82.76,-70.73 -119.52,-70.14 -36.76,0.6 -82.73,33.46 -117.77,73.95 -15.28,17.67 -26.07,39.77 -31.54,63.88 -9.2,40.52 -21.63,110.89 -15.55,175.62"
         style="fill:#e68d3f;fill-opacity:1;fill-rule:nonzero;stroke:none"
         id="path82" />
      <path
         d="m 1762.61,1553.74 c 0,0 -2.37,-2.5 -6.81,-7.18 -4.37,-4.59 -10.71,-11.24 -19.07,-19.39 -8.38,-8.13 -18.55,-18.01 -30.21,-29.34 -11.69,-11.33 -25.41,-23.59 -40.54,-36.99 -15.16,-13.39 -32.1,-27.45 -50.72,-42.23 -18.86,-14.71 -39.09,-29.67 -64.21,-44.97 -6.35,-3.83 -13.09,-7.66 -20.85,-11.45 -4,-1.91 -7.74,-3.77 -12.62,-5.72 -2.38,-0.96 -4.48,-1.86 -7.12,-2.81 l -8.52,-2.79 -2.14,-0.65 -0.53,-0.17 c -11.19,-2.88 -3.27,-0.82 -5.84,-1.48 l -0.58,-0.09 -2.62,-0.42 c -9.3,-1.75 -20.94,-1.42 -25.53,-0.48 -6.55,0.84 -11.4,2.31 -16.59,3.98 -4.63,1.65 -8.92,3.56 -12.65,5.5 -14.49,7.82 -22.83,15.72 -30.1,22.94 -7.13,7.29 -12.69,14.19 -17.65,20.92 -4.98,6.75 -9.4,13.35 -13.33,19.93 -7.98,13.14 -14.72,26.02 -20.95,38.86 -12.14,25.79 -22.15,51.36 -30.54,76.86 -8.48,25.43 -15.91,50.45 -22.37,74.8 -6.52,24.32 -11.95,47.98 -16.91,70.42 -5.06,22.41 -9.27,43.71 -13.08,63.43 -3.79,19.75 -5.66,38.16 -11.54,53.85 -5.51,15.8 -9.72,30.13 -10.43,42.53 -1.02,12.35 0.63,22.57 2.62,29.53 1.92,6.96 4.18,10.65 4.18,10.65 9.21,15.03 28.86,19.75 43.89,10.55 3.7,-2.27 6.78,-5.17 9.17,-8.47 l 2.63,-3.68 c 0,0 2,-2.79 4.15,-7.96 2.17,-5.18 4.63,-12.77 6.02,-22.95 1.68,-10.13 1.41,-23.05 1.64,-38.29 -0.03,-15.32 5.66,-31.72 11.44,-49.62 11.41,-35.89 28.47,-76.95 49.24,-119.35 10.33,-21.22 21.53,-42.8 33.52,-64.06 12.14,-21.16 24.51,-42.36 37.55,-61.84 6.37,-9.79 12.94,-19.14 19.5,-27.32 6.42,-8.04 13.14,-15.61 17.51,-18.76 1.92,-1.56 3.54,-1.77 0.32,0.29 -0.9,0.55 -2.26,1.26 -3.94,1.85 -2.14,0.86 -4.01,1.29 -7.4,1.92 -1.49,0.31 -9.98,1 -16.15,-0.69 l 1.98,0.53 0.57,0.15 c -2.38,-0.61 5.74,1.47 -5.27,-1.35 l 0.02,0.03 0.06,0.15 0.28,0.39 1.39,0.99 3.94,2.65 c 3.04,2.14 6.71,4.77 10.49,7.63 15.32,11.61 31.5,26.41 46.57,40.48 15.23,14.12 29.4,28.42 42.64,41.53 13.17,13.34 25.24,25.58 35.94,36.42 10.64,11 19.93,20.58 27.57,28.47 15.03,15.66 23.63,24.61 23.63,24.61 l 0.53,0.56 c 28.5,29.69 75.68,30.66 105.37,2.15 29.58,-28.39 30.63,-75.34 2.45,-105.05"
         style="fill:#e68d3f;fill-opacity:1;fill-rule:nonzero;stroke:none"
         id="path84" />
      <path
         d="m 2292.44,1638.38 c 0,0 19.61,-41.64 47.26,-105.01 13.68,-31.68 29.64,-68.64 46.74,-108.25 8.41,-19.71 17.09,-40.09 25.92,-60.78 4.38,-10.11 8.8,-20.3 13.24,-30.53 l 8.05,-17.99 c 2.08,-4.7 5.12,-14.24 5.63,-18.7 1.06,-5.52 1.4,-11.2 1.36,-16.85 -0.28,-11.2 -2.75,-21.52 -6.08,-30.01 -6.83,-16.65 -15.48,-26.61 -22.97,-34.4 -7.62,-7.61 -14.7,-13.13 -21.61,-17.76 -13.69,-9.07 -26.29,-15.44 -38.59,-20.82 -24.6,-10.53 -47.95,-17.18 -70.53,-22.67 -22.5,-5.53 -44.03,-9.8 -64.41,-13.39 -20.27,-3.34 -39.44,-6.51 -57.13,-9.42 -8.78,-1.44 -17.2,-2.82 -25.2,-4.13 -7.97,-1.37 -15.68,-2.01 -22.62,-3.94 -13.83,-3.98 -25.15,-11.25 -35.39,-13.22 -20.27,-5.18 -33.76,2.53 -33.76,2.53 -17.27,9.87 -23.26,31.87 -13.39,49.13 0.89,1.56 1.88,3.03 2.95,4.39 l 1.13,1.41 c 0,0 2.34,2.95 7.1,6.07 4.73,3.29 11.9,6.58 21.59,8.08 9.57,1.99 22.26,-0.16 35.87,2.13 13.4,3.19 27.99,8.99 43.98,14.62 15.87,6.12 32.92,13.05 50.43,21.35 17.54,8.16 35.74,17.14 53.75,26.95 8.99,4.92 17.95,10.04 26.58,15.4 8.67,5.22 17.23,10.48 24.9,16 7.76,5.3 14.86,10.78 19.55,15.57 2.23,2.36 3.92,4.38 4.15,5.24 0.26,0.7 -1.49,0.27 -4.17,-5.57 -1.37,-3.05 -2.72,-7.65 -2.86,-13.07 -0.19,-2.77 0.09,-5.56 0.46,-8.26 0.13,-1.58 2.02,-8.44 3.22,-10.41 l -1.04,1.9 -0.26,0.48 c -1.56,3.11 1.97,-3.97 1.55,-3.15 l -0.15,0.26 -0.6,1.02 -2.39,4.09 -4.79,8.19 c -5.99,10.46 -11.81,20.82 -17.27,30.99 -10.86,20.29 -21.56,40.26 -31.91,59.59 -20.11,38.71 -38.53,74.86 -53.9,106.05 -30.86,62.27 -49.8,104.6 -49.8,104.6 l -0.04,0.08 c -16.81,37.57 0.02,81.66 37.59,98.47 37.1,16.61 80.59,0.33 97.86,-36.26"
         style="fill:#e68d3f;fill-opacity:1;fill-rule:nonzero;stroke:none"
         id="path86" />
      <path
         d="m 1915.34,1906.23 c -6.65,0 -11.07,-7.49 -7.28,-12.96 11.08,-16.01 29.5,-26.52 50.45,-26.52 20.58,0 38.71,10.14 49.85,25.66 4.14,5.78 0.35,13.82 -6.76,13.82 h -86.26"
         style="fill:#ffffff;fill-opacity:1;fill-rule:nonzero;stroke:none"
         id="path88" />
      <path
         d="m 1678.78,1722.26 c 49.13,48.3 133.58,44.08 133.58,44.08 0,0 32.31,-95.82 149.08,-97.34 116.77,1.52 149.08,97.34 149.08,97.34 0,0 84.45,4.22 133.58,-44.08 49.13,-48.3 79.41,-121.86 79.41,-121.86 l -122.42,-138.62 -16.63,36.71 c 0,0 -21.53,-237.84 -10.53,-315.4 0,0 -85.99,-42.58 -212.49,-42.58 -126.5,0 -212.49,42.58 -212.49,42.58 11,77.56 -10.89,326.04 -10.89,326.04 l -40.98,-19.37 -119.24,135.02 c 0,0 51.81,49.18 100.94,97.48"
         style="fill:#cbdff4;fill-opacity:1;fill-rule:nonzero;stroke:none"
         id="path90" />
      <path
         d="m 1627.41,754.512 732.77,95.75 c 78.14,12.207 129.9,87.668 113.15,164.968 l -0.01,0.07 c -16.75,77.3 -95.11,124.57 -171.3,103.33 L 1598.9,894.84 1627.41,754.512"
         style="fill:#8ab3e3;fill-opacity:1;fill-rule:nonzero;stroke:none"
         id="path92" />
      <path
         d="m 1608.67,846.77 -9.77,48.082 192.32,61.207 c 46.92,-42.61 106.25,-74.637 161.62,-98.028 40.36,-17.062 87.69,-34.25 135.86,-43.242 L 1799.04,776.93 c -65.73,8.769 -129.63,36.718 -190.37,69.84"
         style="fill:#719fda;fill-opacity:1;fill-rule:nonzero;stroke:none"
         id="path94" />
      <path
         d="m 2196.24,849.289 c -105.34,54.742 -217.16,93.301 -329.38,130.84 l 130.02,41.381 c 51.35,-16.37 102.12,-33.791 152.83,-53.561 61.52,-23.988 137.62,-44.289 175.18,-78.82 20.03,-18.41 41.31,-28.297 62.33,-31.75 -8.59,-3.207 -17.61,-5.649 -27.04,-7.117 l -138.77,-18.133 c -7.64,6.543 -15.99,12.391 -25.17,17.16"
         style="fill:#719fda;fill-opacity:1;fill-rule:nonzero;stroke:none"
         id="path96" />
      <path
         d="m 2261.73,852.422 62.31,39.488 c 23.63,14.981 54.92,7.969 69.9,-15.66 l 89.88,-141.77 c 7.86,-12.398 0.91,-28.832 -13.46,-31.839 -8.27,-1.731 -16.78,1.668 -21.59,8.629 l -8.43,12.742 c -28.95,43.758 -84.44,61.508 -133.4,42.66 l -45.21,85.75"
         style="fill:#e68d3f;fill-opacity:1;fill-rule:nonzero;stroke:none"
         id="path98" />
      <path
         d="m 2470.36,702.641 c -8.27,-1.731 -16.78,1.668 -21.59,8.629 l -8.43,12.742 c -23.11,34.929 -63.13,53.218 -103.24,49.609 14.72,20.699 19.46,48.688 3.15,76.379 -9.65,16.379 -22.44,25.602 -36.12,29.289 l 19.91,12.621 c 23.63,14.981 54.92,7.969 69.9,-15.66 l 89.88,-141.77 c 7.86,-12.398 0.91,-28.832 -13.46,-31.839"
         style="fill:#192e3b;fill-opacity:1;fill-rule:nonzero;stroke:none"
         id="path100" />
      <path
         d="m 2295,754.512 -732.77,95.75 c -78.14,12.207 -129.9,87.668 -113.15,164.968 l 0.01,0.07 c 16.75,77.3 95.11,124.57 171.3,103.33 L 2323.51,894.84 2295,754.512"
         style="fill:#8ab3e3;fill-opacity:1;fill-rule:nonzero;stroke:none"
         id="path102" />
      <path
         d="m 2034.83,2079.86 c 39.9,-5.57 67.09,-50.41 76.33,-89.62 2.25,-9.59 3.08,-19.71 7.63,-28.45 4.56,-8.74 14.46,-15.84 23.92,-13.11 10.63,3.06 14.57,15.81 16.56,26.69 11.8,64.65 13.54,132.6 -7.34,194.9 -20.89,62.31 -66.9,118.31 -128.86,140.19 -84.63,29.87 -185.03,-12.58 -233.37,-88.19 -48.34,-75.61 -29.67,-264.27 -1.1,-265.72 28.56,-1.45 0,32.62 38.93,95.58 15.6,25.23 45.75,137.06 45.75,137.06 0,0 61.98,-95.44 161.55,-109.33"
         style="fill:#f1453f;fill-opacity:1;fill-rule:nonzero;stroke:none"
         id="path104" />
      <path
         d="m 2228.57,1071.53 h -494.64 c -15.34,0 -27.78,12.44 -27.78,27.79 v 290.87 c 0,15.34 12.44,27.78 27.78,27.78 h 494.64 c 15.34,0 27.78,-12.44 27.78,-27.78 v -290.87 c 0,-15.35 -12.44,-27.79 -27.78,-27.79"
         style="fill:#192e3b;fill-opacity:1;fill-rule:nonzero;stroke:none"
         id="path106" />
      <path
         d="m 1986.88,1317.14 21.15,-42.86 47.3,-6.88 c 5.15,-0.74 7.21,-7.08 3.48,-10.71 l -34.22,-33.36 8.08,-47.11 c 0.88,-5.13 -4.51,-9.04 -9.12,-6.62 l -42.3,22.24 -42.3,-22.24 c -4.61,-2.42 -10,1.49 -9.12,6.62 l 8.08,47.11 -34.22,33.36 c -3.73,3.63 -1.67,9.97 3.48,10.71 l 47.3,6.88 21.15,42.86 c 2.3,4.66 8.96,4.66 11.26,0"
         style="fill:#ffffff;fill-opacity:1;fill-rule:nonzero;stroke:none"
         id="path108" />
      <path
         d="m 2850.39,831.539 c -2.62,15.281 -5.17,30.563 -7.37,45.84 -2.42,15.293 -4.26,30.57 -6.4,45.859 -2.16,15.282 -3.76,30.582 -5.67,45.871 -1.92,15.282 -3.58,30.582 -5.11,45.871 l -4.75,45.88 -4.03,45.89 c -1.29,15.3 -2.84,30.59 -3.82,45.89 l -3.28,45.9 c -2.33,30.6 -4.14,61.2 -5.08,91.82 -0.43,15.31 -0.72,30.62 -0.81,45.94 l 0.19,45.95 1.25,91.91 c -0.04,30.63 -0.04,61.27 -1.54,91.88 -0.19,3.9 0.06,7.72 0.71,11.41 l 0.97,5.31 c 2.8,15.44 5.23,31.5 7.24,47.41 2.12,15.95 3.66,32.02 5.46,48.03 l 9.85,96.18 c 3.33,32 5.47,64.19 7.84,96.23 2.16,32.08 4.63,64.01 5.85,96.01 1.35,31.97 2.39,63.82 3.05,95.44 0.34,31.65 0.03,63.09 -0.84,93.84 -0.41,15.36 -1.47,30.57 -2.53,45.4 -1.17,14.81 -2.41,29.29 -4.39,42.85 -1.99,13.47 -4.45,26.28 -7.43,35.63 -1.51,4.71 -3.36,8.29 -4.89,9.07 -1.13,0.55 -3.79,-0.21 0.58,-16.1 -33.86,84.67 7.32,180.76 91.98,214.62 84.67,33.87 180.76,-7.31 214.63,-91.98 10.26,-31 10.62,-47.8 11.61,-63.27 0.61,-15.26 0,-27.85 -0.91,-39.31 -1.68,-23 -4.71,-42.59 -8.08,-61.46 -3.38,-18.79 -6.89,-36.62 -10.8,-54.06 -3.81,-17.44 -8.1,-34.45 -12.1,-51.26 -8.08,-33.61 -16.89,-66.36 -25.8,-98.8 -8.63,-32.47 -17.59,-64.59 -26.8,-96.51 l -27.28,-95.4 -27.73,-94.74 -27.76,-94.41 -14.08,-47.11 c -4.59,-15.78 -8.83,-31.4 -12.88,-47.61 l 1.68,16.72 c -0.61,-30.64 0.27,-61.26 1.12,-91.88 l 3.92,-91.84 1.52,-45.92 c 0.35,-15.32 0.51,-30.63 0.52,-45.95 -0.05,-30.63 -0.98,-61.27 -2.41,-91.93 l -1.96,-45.97 c -0.53,-15.33 -1.63,-30.66 -2.48,-45.99 l -2.7,-45.98 -3.42,-46 c -1.09,-15.33 -2.3,-30.671 -3.78,-45.999 -1.46,-15.34 -2.62,-30.672 -4.34,-46.012 -1.69,-15.347 -3.09,-30.679 -5.06,-46.027 -1.76,-15.34 -3.86,-30.68 -6.04,-46.031 -2.98,-20.93 -22.35,-35.481 -43.28,-32.512 -16.86,2.391 -29.58,15.492 -32.34,31.41"
         style="fill:#e68d3f;fill-opacity:1;fill-rule:nonzero;stroke:none"
         id="path110" />
      <path
         d="m 2935.09,898.5 2.5,-76.43 c 0.94,-28.98 -21.79,-53.238 -50.77,-54.191 l -173.9,-5.668 c -15.21,-0.5 -26.23,14.348 -21.36,28.769 2.81,8.301 10.32,14.11 19.07,14.75 l 15.81,0.821 c 54.32,2.828 108.89,55.781 117.82,109.429 l 90.83,-17.48"
         style="fill:#e68d3f;fill-opacity:1;fill-rule:nonzero;stroke:none"
         id="path112" />
      <path
         d="m 2691.56,790.98 c 2.81,8.301 10.32,14.11 19.07,14.75 l 15.81,0.821 c 43.36,2.258 80.74,28.379 98.63,66.101 10.74,-24.043 33.24,-43.004 66.55,-43.004 19.71,0 34.68,6.571 45.17,16.852 l 0.8,-24.43 c 0.94,-28.98 -21.79,-53.238 -50.77,-54.191 l -173.9,-5.668 c -15.21,-0.5 -26.23,14.348 -21.36,28.769"
         style="fill:#192e3b;fill-opacity:1;fill-rule:nonzero;stroke:none"
         id="path114" />
      <path
         d="m 3118.9,1048.23 71.27,-27.71 c 27.03,-10.51 40.42,-40.93 29.92,-67.961 l -63.05,-162.168 c -5.52,-14.18 -23.5,-18.493 -34.84,-8.352 -6.54,5.84 -8.93,15.031 -6.09,23.332 l 5.45,14.859 c 18.73,51.071 6.32,97.079 -53.6,149.012 l 50.94,78.988"
         style="fill:#e68d3f;fill-opacity:1;fill-rule:nonzero;stroke:none"
         id="path116" />
      <path
         d="m 3122.2,782.039 c -6.54,5.84 -8.93,15.031 -6.09,23.332 l 5.45,14.859 c 14.95,40.762 5.6,85.399 -22.07,116.661 26.33,0.441 52.59,13.699 65.67,44.328 7.74,18.133 7.57,34.471 2.24,48.161 l 22.77,-8.86 c 27.03,-10.51 40.42,-40.93 29.92,-67.961 l -63.05,-162.168 c -5.52,-14.18 -23.5,-18.493 -34.84,-8.352"
         style="fill:#192e3b;fill-opacity:1;fill-rule:nonzero;stroke:none"
         id="path118" />
      <path
         d="m 3073.18,961.961 c -12.83,12.629 -25.32,25.508 -37.72,38.459 -12.5,12.86 -24.52,26.09 -36.81,39.12 l -36.13,39.62 -35.72,39.93 c -47.16,53.57 -93.15,108.01 -138.25,163.11 -22.69,27.44 -44.76,55.34 -66.04,83.82 -10.66,14.23 -21.2,28.55 -31.42,43.1 -10.22,14.55 -20.65,28.95 -30.69,43.63 -20.26,29.23 -40.42,58.54 -61.07,87.49 -10.36,14.44 -20.86,28.79 -31.62,42.94 -10.71,14.19 -21.62,28.24 -32.81,42.07 -16.55,20.44 -20.5,46.97 -12.86,70.22 l 3.14,9.29 c 8.38,24.85 15.06,50.41 22.29,75.73 7.25,25.32 14.01,50.85 20.96,76.29 13.66,50.99 26.89,102.15 39.33,153.64 6.34,25.69 12.3,51.54 18.3,77.38 l 17.13,77.86 8,39.17 c 2.59,13.09 5.41,26.08 7.8,39.25 4.94,26.27 9.82,52.57 13.89,79.2 15.53,101.79 110.64,171.72 212.43,156.18 101.79,-15.53 171.71,-110.64 156.18,-212.43 -4.65,-30.41 -16.93,-58.66 -33.84,-81.95 -15.91,-21.75 -31,-43.83 -46.04,-65.94 -7.59,-11.02 -14.75,-22.22 -22.15,-33.32 l -21.96,-33.4 -42.8,-67.27 c -13.97,-22.54 -27.98,-45.08 -41.62,-67.76 -27.5,-45.27 -54.21,-90.86 -80.5,-136.63 -13.02,-22.94 -26.24,-45.8 -38.96,-68.86 -12.74,-23.05 -26.03,-45.88 -37.63,-69.4 l -9.71,79.5 c 9.88,-14.79 20.06,-29.38 30.43,-43.82 10.32,-14.47 20.91,-28.75 31.63,-42.93 21.51,-28.32 43.52,-56.26 65.42,-84.29 11.04,-13.94 21.7,-28.18 32.56,-42.25 10.87,-14.07 21.41,-28.39 31.84,-42.79 20.88,-28.77 40.97,-58.13 60.45,-87.94 39.23,-59.42 77.57,-119.49 114.74,-180.43 l 27.53,-45.95 27.12,-46.27 c 8.79,-15.6 17.86,-31 26.43,-46.76 8.69,-15.68 17.28,-31.43 25.53,-47.43 10.63,-20.609 2.54,-45.941 -18.08,-56.57 -16.52,-8.519 -36.12,-4.961 -48.7,7.391"
         style="fill:#e68d3f;fill-opacity:1;fill-rule:nonzero;stroke:none"
         id="path120" />
      <path
         d="m 2703.56,1677.18 124.28,216.6 c 0,0 -39.97,-233.65 -42.67,-309.04 -0.2,-5.63 -81.61,92.44 -81.61,92.44 m -160.42,-72.42 249.19,-350.12 33.29,-321.351 119.39,-8.879 8.43,152.69 87.44,-85.221 49.71,131.381 -124.27,188.19 c 0,0 -10.66,230.8 0,259.21 10.65,28.4 163.33,475.8 195.29,596.53 31.96,120.72 14.2,220.15 -24.86,333.77 l -431.48,53.7 c 0,0 -37.22,-131.82 -51.42,-256.09 -9.94,-86.96 -92.37,-346.7 -140.98,-494.83 -22.11,-67.39 -10.85,-141.2 30.27,-198.98"
         style="fill:#fbc948;fill-opacity:1;fill-rule:nonzero;stroke:none"
         id="path122" />
      <path
         d="m 2753.34,2995.71 c 0,0 -2.88,-2.45 -8.29,-7.04 -5.31,-4.41 -12.88,-10.95 -22.86,-18.78 -19.98,-15.67 -48.16,-38.24 -84.05,-63.39 -17.91,-12.63 -37.62,-26.08 -59.39,-39.64 -21.77,-13.62 -45.2,-27.7 -72.12,-40.99 -13.54,-6.66 -27.8,-13.24 -44.34,-19.33 -8.33,-3.04 -17.21,-5.97 -27.51,-8.52 -10.39,-2.4 -22.03,-4.73 -37.95,-4.85 -8.22,0.1 -17.21,0.6 -28.62,3.59 -2.72,0.69 -5.46,1.48 -8.61,2.67 l -4.5,1.75 -2.22,0.93 c -1.97,0.93 2.84,-1.4 -4.69,2.21 l -0.28,0.17 -2.24,1.33 -3.4,2 -4.41,2.8 -4.27,2.99 -2.69,2.13 -4.88,4.14 c -2.7,2.53 -5.54,5.26 -7.76,7.69 -4.53,4.92 -8.27,9.6 -11.41,13.93 -12.5,17.41 -19.78,32 -26.76,46.44 -13.3,28.69 -23.19,55.55 -32.47,82.01 -8.78,26.03 -17.43,51.65 -25.79,76.44 -8.42,24.38 -16.88,47.54 -25.58,68.98 -8.74,21.4 -18.06,40.91 -27.69,57.9 -4.85,8.47 -9.69,16.39 -14.51,23.64 -4.71,7.32 -9.73,13.79 -15.56,18.59 -11.86,9.49 -23.52,14.33 -30.77,19.86 -7.6,5.23 -12.44,10.09 -15.77,14.18 -3.32,3.98 -5,7.14 -5,7.14 l -6.05,11.42 c -8.23,15.54 -2.3,34.82 13.25,43.05 3.7,1.96 7.72,3.12 11.65,3.54 0,0 1.22,0.12 3.59,0.36 2.33,0.11 5.89,0.26 10.22,-0.38 8.77,-0.97 21.31,-4.69 33.81,-13.54 6.37,-4.28 12.45,-9.93 18.33,-16.55 5.78,-6.66 11.27,-14.25 17.15,-21.9 5.79,-7.7 12.62,-15.03 19.79,-22.73 7.03,-7.79 14.02,-16.18 21.01,-25.06 14.07,-17.72 28.11,-37.36 42.38,-58.25 14.32,-20.86 28.51,-43.18 42.57,-66.27 14,-23.11 28.15,-46.92 41.92,-70.69 6.74,-11.71 13.53,-23.51 20.35,-35.35 6.6,-11.62 13.28,-22.94 19.93,-33.18 6.41,-10.14 13.24,-19.89 17.94,-24.49 1.14,-1.18 1.99,-1.76 2.31,-1.84 l -0.18,0.53 -0.82,0.88 -0.64,0.52 -2.1,1.55 -2.24,1.36 c -0.59,0.35 -2.12,1.08 -1.19,0.64 l 2.38,-1.07 0.29,-0.13 -4.07,1.98 -1.01,0.48 -2.06,0.85 -3.63,1.23 c -4.7,1.22 -6.72,1.41 -8.06,1.57 -2.13,0.28 -0.2,0.69 2.56,1.9 2.87,1.11 6.81,2.8 11,4.83 8.51,4.1 18.14,9.54 27.69,15.4 19.17,11.93 38.56,25.26 56.73,38.52 18.15,13.36 35.41,26.51 51.26,38.9 31.59,24.98 58.1,46.18 76.14,61.48 17.88,14.91 28.09,23.43 28.09,23.43 l 1.06,0.88 c 34.6,28.85 86.04,24.19 114.89,-10.42 28.69,-34.4 24.21,-85.48 -9.85,-114.42"
         style="fill:#f9ab97;fill-opacity:1;fill-rule:nonzero;stroke:none"
         id="path124" />
      <path
         d="m 3119.65,3153.83 c -120.65,3.65 -109.78,106.21 -109.78,106.21 l -80.69,2.49 -66.35,23.15 c 0,0 -3.47,-128.2 -124.11,-131.85 -39.21,-1.18 -117.88,-128.52 -117.88,-128.52 h 553.22 c 0,0 -36.36,127.98 -54.41,128.52"
         style="fill:#f9ab97;fill-opacity:1;fill-rule:nonzero;stroke:none"
         id="path126" />
      <path
         d="m 2685.8,3138.33 c 31.96,15.97 81.8,17.16 81.8,17.16 0,0 33.95,-95.59 157.8,-97.16 123.86,1.57 157.2,101.3 157.2,101.3 0,0 55.6,10.12 106.53,-39.95 50.92,-50.06 -6.66,-139.81 -6.66,-139.81 0,0 -67.91,-230.35 -36.93,-425.21 0,0 -85.35,-44.14 -220.14,-44.14 -134.78,0 -220.13,44.14 -220.13,44.14 30.24,148.7 -14.14,226.81 -24.79,293.39 -10.66,66.58 47.93,135.82 5.32,290.28"
         style="fill:#5c8bd0;fill-opacity:1;fill-rule:nonzero;stroke:none"
         id="path128" />
      <path
         d="m 2703.56,1677.18 c 118.95,306.25 154.46,557.47 154.46,557.47 20.68,-86.18 -31.96,-341.76 -31.96,-341.76 l -122.5,-215.71"
         style="fill:#f9ae26;fill-opacity:1;fill-rule:nonzero;stroke:none"
         id="path130" />
      <path
         d="m 2710.05,3529.88 c 7.59,93.33 64.73,143.61 170.29,147.49 62.91,2.32 122.06,-29.93 157.63,-81.86 l 5.14,-7.5 c 29.41,-42.92 39.69,-113.09 26.9,-163.61 0,0 -9.83,-1.86 -42.2,-62.58 -32.37,-60.72 -11.19,-168.22 -11.19,-168.22 0,0 -109.88,-69.14 -144.09,0.44 l 0.96,83.06 c 0,0 -58.59,-26.59 -103.53,-4.93 -23.5,11.33 -75.38,67.25 -59.91,257.71"
         style="fill:#f9ab97;fill-opacity:1;fill-rule:nonzero;stroke:none"
         id="path132" />
      <path
         d="m 2812.95,3539.63 c 31.35,-27.75 59.31,-49.31 61.31,-98.78 2.01,-49.48 32.6,-63.68 54.55,-34.82 5.98,7.87 25.3,33.03 35.02,34.82 14.01,2.57 14.21,-27.21 17.99,-40.95 3.78,-13.74 1.68,-28.35 2.82,-42.55 1.14,-14.21 7.05,-29.8 20.27,-35.14 62.81,16.4 107.34,77.67 116.94,141.88 9.6,64.2 -10.85,129.84 -43.05,186.2 -15.89,27.82 -35.42,54.72 -62.79,71.38 -56.82,34.57 -125.18,36.94 -198.8,8.19 -33.29,-13 -103.64,-59.9 -93.75,-107.5 8.11,-39.04 61.79,-58.2 89.49,-82.73"
         style="fill:#192e3b;fill-opacity:1;fill-rule:nonzero;stroke:none"
         id="path134" />
      <path
         d="m 3094.96,2356.41 -152.36,-27.33 -88.09,294.56 220.65,39.59 19.8,-306.82"
         style="fill:#e68d3f;fill-opacity:1;fill-rule:nonzero;stroke:none"
         id="path136" />
      <path
         d="m 3092.52,2431.42 -10.91,157.57 -207.35,-37.2 44.55,-151.53 173.71,31.16"
         style="fill:#ffffff;fill-opacity:1;fill-rule:nonzero;stroke:none"
         id="path138" />
      <path
         d="m 3075.81,2639.09 -213.52,-38.31 c -5.44,-0.98 -10.64,2.64 -11.61,8.07 l -6.92,38.55 c -0.97,5.43 2.64,10.63 8.08,11.6 l 213.53,38.31 c 5.43,0.98 10.63,-2.64 11.61,-8.08 l 6.91,-38.54 c 0.98,-5.43 -2.64,-10.63 -8.08,-11.6"
         style="fill:#fce486;fill-opacity:1;fill-rule:nonzero;stroke:none"
         id="path140" />
      <path
         d="m 3399.76,2613.17 -0.15,-0.09 1.87,1.88 c 1.19,1.12 3.1,2.56 3.91,3.08 l -2.36,-1.96 c -1.1,-0.91 -0.76,-0.66 -0.93,-0.85 l -0.33,-0.43 z m -432.12,-163.76 c 2.88,-1.86 5.93,-3.26 9.05,-4.22 l 4.3,-1.29 c 0,0 4.75,-1.44 12.18,-1.31 7.33,0.16 17.65,1.65 29.9,6.84 12.42,4.68 26.67,15.31 45.79,18.08 19.03,2.77 40.66,5.72 64.57,7.18 23.87,1.83 49.99,2.1 77.56,2.19 27.61,-0.1 56.73,-0.65 86.79,-1.97 14.97,-0.57 30.19,-1.15 45.59,-1.74 7.61,-0.28 15.27,-0.57 22.97,-0.85 l 12.04,-0.47 1.51,-0.06 0.37,-0.02 0.16,-0.01 1.16,-0.01 h 4.67 l 9.37,0.36 c 25.01,1.76 50.15,8.83 72.98,20.85 2.88,1.45 5.66,3.09 8.47,4.7 l 8.86,5.62 2.58,1.67 c 2.48,1.71 5.91,4.52 8.65,6.98 5.76,5.27 10.95,11.32 15.19,17.71 8.49,12.77 12.9,26.01 15.06,36.95 2.15,11.04 2.46,20.43 2.23,28.68 -0.62,16.43 -3.24,28.91 -6.15,40.36 -2.98,11.32 -6.39,21.37 -9.97,30.88 -7.19,18.92 -15.07,35.73 -23.17,51.81 -16.21,32.04 -33.44,60.96 -50.78,88.21 -34.52,54.45 -69.13,102.03 -99.36,142.33 -30.54,40.02 -56.69,72.58 -75.23,95.32 -19.12,22.63 -30.04,35.56 -30.04,35.56 -8.64,10.22 -42.25,43.11 -53.8,47.93 -30.58,-6.43 -54.73,-157.48 -23.39,-209.49 18.07,-21.37 25.59,-30.72 55.24,-68.14 29.97,-37.39 64.39,-81.5 98.22,-129.18 16.72,-23.87 33.44,-48.69 47.97,-73.38 7.2,-12.3 13.83,-24.65 18.96,-35.95 1.16,-2.55 2.21,-5.02 3.18,-7.4 l -0.51,-0.18 -2.67,-0.69 -1.35,-0.28 -0.34,-0.08 -0.6,-0.05 -0.38,-0.04 -1.5,-0.17 -11.98,-1.28 c -7.87,-0.87 -16.55,-1.79 -24.69,-2.88 -16.27,-2.35 -32.17,-4.51 -47.8,-7.38 -31.22,-5.71 -61.24,-11.87 -89.59,-18.32 -28.36,-6.43 -54.98,-13.61 -79.6,-19.84 -12.29,-3.33 -24.06,-6.51 -35.26,-9.54 -11.2,-3.31 -21.78,-6.12 -31.72,-9.36 -19.78,-6.29 -39.06,-5.09 -54.04,-8.84 -7.5,-1.92 -14.03,-4.25 -19.49,-6.78 -5.5,-2.55 -9.88,-5.94 -13.32,-8.59 -6.86,-5.52 -9.73,-9.97 -9.73,-9.97 -10.92,-16.94 -6.05,-39.53 10.89,-50.45"
         style="fill:#f9ab97;fill-opacity:1;fill-rule:nonzero;stroke:none"
         id="path142" />
      <path
         d="m 3013.05,3402.54 c 0,-21.16 -17.16,-38.32 -38.31,-38.32 -21.16,0 -38.32,17.16 -38.32,38.32 0,21.15 17.16,38.31 38.32,38.31 21.15,0 38.31,-17.16 38.31,-38.31"
         style="fill:#f9ab97;fill-opacity:1;fill-rule:nonzero;stroke:none"
         id="path144" />
      <path
         d="m 3161.33,3698.61 c 0,-54.54 -44.22,-98.75 -98.75,-98.75 -54.54,0 -98.75,44.21 -98.75,98.75 0,54.54 44.21,98.75 98.75,98.75 54.53,0 98.75,-44.21 98.75,-98.75"
         style="fill:#192e3b;fill-opacity:1;fill-rule:nonzero;stroke:none"
         id="path146" />
      <path
         d="m 2861.54,3272.59 -7.03,-30.37 c 0,0 57.58,15.98 72.64,54.31 0,0 -47.35,-18.86 -65.61,-23.94"
         style="fill:#f79685;fill-opacity:1;fill-rule:nonzero;stroke:none"
         id="path148" />
      <path
         d="m 2751.57,3361.34 c -4.83,-0.11 -7.92,-5.62 -5.09,-9.53 8.31,-11.46 21.85,-18.8 37.07,-18.47 14.95,0.33 27.96,7.98 35.8,19.43 2.92,4.27 0.04,10.05 -5.12,9.94 l -62.66,-1.37"
         style="fill:#ffffff;fill-opacity:1;fill-rule:nonzero;stroke:none"
         id="path150" />
      <path
         d="M 4245.3,1297.51 4468.53,770 h 26.3 l -168.21,602.81 -81.32,-75.3"
         style="fill:#f1453f;fill-opacity:1;fill-rule:nonzero;stroke:none"
         id="path152" />
      <path
         d="M 3927.19,1297.51 3703.96,770 h -26.29 l 168.2,602.81 81.32,-75.3"
         style="fill:#f1453f;fill-opacity:1;fill-rule:nonzero;stroke:none"
         id="path154" />
      <path
         d="m 3612.34,1412.28 c -89.67,-77.42 95.33,-279.53 385.33,-300.97 290,-21.45 531.15,171.32 696.54,505.97 165.39,334.66 177.98,798 -304.28,605.29 -482.26,-192.71 -471.12,-794.03 -471.12,-794.03 l -306.47,-16.26"
         style="fill:#fbc948;fill-opacity:1;fill-rule:nonzero;stroke:none"
         id="path156" />
      <path
         d="m 4070.38,2064.19 c -19.43,-20.13 -40.32,-41.23 -62.58,-62.65 -18.11,-17.19 -36.82,-34.7 -56.14,-51.18 -19.24,-16.48 -39.26,-32.04 -58.33,-44.87 -9.51,-6.36 -18.9,-11.89 -26.88,-15.72 -7.81,-4 -14.94,-5.81 -14.67,-6.19 l 0.5,-0.26 1.26,-0.4 0.85,-0.33 0.21,-0.11 c 4.27,-1.09 1,-0.27 1.87,-0.5 l -0.32,0.06 -1.27,0.22 c -1.37,0.21 -4.39,0.83 -3.25,0.47 1.04,-0.62 -0.37,-0.48 -1.46,-0.33 -1.12,0.15 -2.38,0.48 -3.72,0.85 -5.38,1.88 -12.84,5.3 -20.2,10.82 -15.24,10.61 -30.92,26.6 -44.47,43.35 -13.59,16.89 -26.13,34.5 -36.27,51.72 -10.4,17.14 -18.62,33.81 -25.71,48.73 -8.15,14.61 -6.46,30.36 -8.54,41.97 -1.98,11.68 -6.3,19.97 -10.7,25.22 -2.21,2.62 -4.16,4.55 -5.74,5.76 -1.53,1.27 -2.47,1.65 -2.47,1.65 l -14.34,5.84 -1.31,0.5 c -18.37,6.57 -38.58,-3 -45.15,-21.37 0,0 -0.41,-1.14 -1.19,-3.34 -0.73,-2.08 -1.4,-5.01 -1.88,-8.73 -0.93,-7.41 -0.01,-17.66 5.22,-29.41 5.14,-11.82 16.01,-24.39 19.35,-41.94 4.41,-17.23 9.98,-36.56 16.33,-57.97 6.59,-21.31 13.77,-44.83 24.25,-69.65 10.66,-24.79 23.39,-51.41 44.87,-78.48 10.99,-13.25 24.23,-27.08 42.23,-38.83 4.55,-2.93 9.29,-5.77 14.37,-8.41 5.12,-2.61 10.04,-5.02 17.59,-7.71 l 6.6,-2.41 1.21,-0.45 0.3,-0.11 c 1.08,-0.28 -1.99,0.47 2.49,-0.66 l 1.48,-0.33 5.92,-1.24 c 4.07,-0.84 7.79,-1.28 11.48,-1.61 3.81,-0.4 7.46,-0.6 10.82,-0.58 13.96,-0.16 26.05,1.57 36.67,3.92 10.74,2.35 20.45,5.3 29.33,8.56 17.96,6.49 33.46,14.01 48.09,21.85 29.21,15.65 54.63,33.11 78.77,50.66 24.04,17.62 46.56,35.47 67.53,53.38 11.65,9.84 22.8,19.59 33.61,29.25 -28.04,49.14 -54.16,99 -76.61,150.99"
         style="fill:#d87c2e;fill-opacity:1;fill-rule:nonzero;stroke:none"
         id="path158" />
      <path
         d="m 3869.71,1717.36 -340.86,222.36 -17.47,-266.81 322.08,-140.55 123.75,82.5 -87.5,102.5"
         style="fill:#36559b;fill-opacity:1;fill-rule:nonzero;stroke:none"
         id="path160" />
      <path
         d="m 3296.25,888.359 -14.07,57.743 -102.83,-16.5 c 0.91,-21.961 -4.25,-42.993 -14.04,-61.36 40.31,-27.922 103.8,-24.051 130.94,20.117"
         style="fill:#e68d3f;fill-opacity:1;fill-rule:nonzero;stroke:none"
         id="path162" />
      <path
         d="m 3294.43,895.832 c -10.91,-21.703 -32.13,-38.371 -62.85,-38.371 -29.54,0 -48.07,15.238 -56.46,35.539 -11.07,-40.469 -42.81,-73.328 -85.1,-84.5 l -15.88,-4.199 c -8.73,-2.5 -15.12,-9.992 -16.21,-19.012 -1.88,-15.668 12.46,-28.391 27.78,-24.648 l 175.23,42.691 c 29.21,7.109 47.12,36.547 40,65.758 l -6.51,26.742"
         style="fill:#192e3b;fill-opacity:1;fill-rule:nonzero;stroke:none"
         id="path164" />
      <path
         d="m 3086.16,1132.61 c 24.92,-5.68 46.31,7.43 65.05,23.22 l 7.44,60.91 -102.05,20.84 c -6.04,-18.29 -16.22,-34.22 -29.14,-47.15 7.3,-27.21 31.05,-51.51 58.7,-57.82"
         style="fill:#e68d3f;fill-opacity:1;fill-rule:nonzero;stroke:none"
         id="path166" />
      <path
         d="m 3152.37,1165.38 c -17.86,-16.46 -43.59,-24.57 -72.34,-13.73 -27.64,10.42 -39.6,31.21 -40.3,53.16 -24.62,-33.96 -65.92,-53.51 -109.44,-49.04 l -16.33,1.67 c -9.05,0.74 -17.67,-4.02 -21.87,-12.08 -7.29,-13.99 1.64,-30.95 17.29,-32.86 l 179.03,-21.87 c 29.84,-3.64 56.98,17.59 60.63,47.43 l 3.33,27.32"
         style="fill:#192e3b;fill-opacity:1;fill-rule:nonzero;stroke:none"
         id="path168" />
      <path
         d="m 3454.01,1468.74 c -11.2,-55.01 -24.02,-109.71 -38.23,-164.15 -14.24,-54.44 -112.34,-411.41 -112.35,-411.449 0,0 -94.57,0.148 -136.99,28.988 -1.92,75.34 85.66,527.401 95.17,582.721 4.71,27.67 10.25,55.19 15.82,82.69 6.07,27.42 12.02,54.86 19.83,81.95 14.37,49.86 63.33,80.38 113.29,72.98 l 4.27,-0.65 c 0,0 3.85,-86.86 48.12,-6.91 44.27,79.95 551.77,-135.05 551.77,-135.05 110.21,-16.21 205.02,-82.8 188.81,-193.02 -16.21,-110.22 -118.7,-186.43 -228.92,-170.22 -18.25,2.68 -36.45,8.18 -52.57,15.23 l -449.19,312.33 c -2.94,-16.5 -15.46,-79.02 -18.83,-95.44"
         style="fill:#486abc;fill-opacity:1;fill-rule:nonzero;stroke:none"
         id="path170" />
      <path
         d="m 4583.3,2077.55 c -31.84,50.74 -52.88,67.88 -113.19,109.91 l -90.99,33.24 c -41.96,27.61 -74.76,29.3 -100.82,29.3 h -0.03 c -30.63,0 -82.56,-50.96 -82.56,-50.96 0,0 -8.89,-9.38 -24.45,-26.79 -15.88,-17.64 -38.71,-42.69 -66.66,-72.36 -14.17,-15.18 -29.72,-31.38 -46.3,-48.34 12.46,-23.25 24.38,-46.69 35.91,-70.37 -27.7,-85.97 -59.26,-111.54 -106.7,-189.78 l -125,-66.16 c 0,0 0,-126.27 331.18,-348.8 61.24,118.21 104.01,176 181.02,268.44 118.47,142.22 266.66,340.1 208.59,432.67"
         style="fill:#192e3b;fill-opacity:1;fill-rule:nonzero;stroke:none"
         id="path172" />
      <path
         d="m 4158.79,2569.77 c 11.64,98.78 74.32,149.85 186.67,149.69 66.95,-0.1 128.59,-36.74 164.4,-93.32 l 5.17,-8.18 c 29.61,-46.77 37.84,-121.69 22.3,-174.82 l -75.25,-119.09 13.13,-142.09 c 0,0 -122.95,-50.67 -156.64,24.6 l 4.22,88.16 c 0,0 -63.3,-25.85 -110.23,-1.04 -24.55,12.99 -77.54,74.48 -53.77,276.09"
         style="fill:#e68d3f;fill-opacity:1;fill-rule:nonzero;stroke:none"
         id="path174" />
      <path
         d="m 3478.48,1970.4 c -25.87,14.27 -56.94,18.2 -84.55,7.7 -20.99,-7.99 -39.5,-22.89 -51.77,-43.75 -14.3,-24.3 -26.88,-49.4 -39.57,-74.45 -12.24,-25.26 -24.44,-50.53 -35.88,-76.16 -22.96,-51.23 -220.16,-467.32 -237.03,-540.78 33.92,-38.47 125.48,-62.13 125.48,-62.13 0.03,0.03 278.18,509.53 313.78,549.32 35.6,39.79 168.1,11 168.1,11 l -106.14,197.32 -52.42,31.93"
         style="fill:#36559b;fill-opacity:1;fill-rule:nonzero;stroke:none"
         id="path176" />
      <path
         d="m 3778.13,1930.07 -68.29,40.1 c -5.77,3.38 -9.4,9.48 -9.63,16.16 l -6.64,194.36 c -0.52,15.37 16.12,25.28 29.39,17.49 l 68.29,-40.1 c 5.76,-3.38 9.39,-9.48 9.62,-16.16 l 6.64,-194.35 c 0.52,-15.38 -16.12,-25.29 -29.38,-17.5"
         style="fill:#192e3b;fill-opacity:1;fill-rule:nonzero;stroke:none"
         id="path178" />
      <path
         d="m 4221.01,1861.84 c -16.04,-16.9 -32.84,-34.01 -50.56,-50.8 -19.94,-18.98 -41.39,-37.15 -62.01,-51.99 -10.25,-7.33 -20.46,-13.53 -28.59,-17.43 -4.01,-1.95 -7.34,-3.15 -9.06,-3.81 -1.76,-0.71 -1.52,-0.68 1.17,-1.63 -1.69,-0.92 -13.07,2.75 -23.7,8.26 -10.97,5.58 -23.07,12.44 -34.89,20.19 -23.89,15.41 -48.07,32.81 -70.82,50.75 -22.85,17.93 -44.7,36.2 -65.18,53.96 -20.5,17.76 -39.23,35.41 -56.31,51.96 -8.43,8.39 -16.51,16.43 -24.2,24.08 -7.74,7.62 -14.87,15.05 -20.39,23.03 -10.9,16.1 -18.61,31.57 -27.73,41.97 -8.72,10.73 -17.37,17.68 -24,21.81 -6.53,4.23 -10.94,5.58 -10.94,5.58 l -1.89,0.59 c -4.64,1.39 -9.63,1.89 -14.74,1.31 -20.23,-2.3 -34.77,-20.55 -32.48,-40.78 0,0 0.56,-4.93 3.46,-12.38 2.8,-7.56 8.06,-17.69 17.2,-28.56 8.74,-11.2 22.86,-21.84 37.3,-35.44 7.15,-6.87 13.56,-15.19 20.19,-24.1 6.77,-8.8 13.89,-18.05 21.32,-27.7 15,-19.36 31.25,-40.33 48.43,-62.52 17.33,-22.26 36.04,-45.55 56.48,-69.27 20.58,-23.62 42.4,-48.02 68.1,-71.59 13.01,-11.66 26.67,-23.51 42.92,-34.6 8.18,-5.55 16.91,-11.03 26.94,-16.28 5.12,-2.65 10.22,-5.08 16.55,-7.67 l 5.7,-2.1 4.96,-1.72 2.85,-0.97 1.43,-0.48 c -1.79,0.44 2.76,-0.72 2.67,-0.69 l 0.84,-0.2 1.69,-0.38 c 18.4,-4.2 34.91,-3.73 48.92,-1.92 14.07,1.88 26.18,5.16 37.09,8.84 21.71,7.48 39.55,16.54 56.05,25.88 32.79,18.74 60,39.43 85.47,59.7 13.84,11.08 26.86,22.24 39.31,33.31 -30.94,43.81 -59.78,89.12 -89.55,133.79"
         style="fill:#e68d3f;fill-opacity:1;fill-rule:nonzero;stroke:none"
         id="path180" />
      <path
         d="m 4322.79,2294.72 74.78,24.79 -77.95,-72.92 z"
         style="fill:#cb7932;fill-opacity:1;fill-rule:nonzero;stroke:none"
         id="path182" />
      <path
         d="m 4220.78,2646.63 c 0,0 -42.82,-21.42 -64.24,-99.04 0,0 -48.17,123.13 91.01,157.92 l -26.77,-58.88"
         style="fill:#cbdff4;fill-opacity:1;fill-rule:nonzero;stroke:none"
         id="path184" />
      <path
         d="m 4190.46,2392.43 c -6.53,0.08 -10.97,-7.22 -7.31,-12.65 10.69,-15.86 28.66,-26.41 49.25,-26.66 20.21,-0.25 38.15,9.5 49.28,24.61 4.14,5.63 0.51,13.58 -6.47,13.66 l -84.75,1.04"
         style="fill:#ffffff;fill-opacity:1;fill-rule:nonzero;stroke:none"
         id="path186" />
      <path
         d="m 4294.71,2832.51 c -52.83,-10.01 -146.23,-55.15 -112.18,-174.78 7.29,-25.61 31.96,-45.42 58.58,-45.92 27.25,-0.51 58.51,15.76 79.26,-1.91 16.63,-14.18 13.4,-40.07 10.91,-61.79 -2.49,-21.71 1.19,-49.6 22.09,-56 14.91,-4.57 31.58,4.94 46.31,-0.16 14.73,-5.09 21.1,-22.46 22.66,-37.98 1.55,-15.51 0.44,-32.03 7.93,-45.71 8.48,-15.52 26.58,-24.05 44.24,-25.14 32.7,-2.01 28.56,-35.92 70.53,-29.51 32.17,4.92 25.92,38.64 54.56,63.68 19.52,17.06 41.44,34.03 46.57,59.44 9.92,49.14 -33.34,93.88 -36.5,143.91 -2.01,31.78 9.61,51.51 -1.27,84.87 -10.88,33.37 -34.92,53.85 -75.89,64.76 -86.14,22.93 -97.8,88.76 -237.8,62.24"
         style="fill:#cbdff4;fill-opacity:1;fill-rule:nonzero;stroke:none"
         id="path188" />
      <path
         d="m 4468.41,2334.07 13.8,87.76 40,-29.58 z"
         style="fill:#cbdff4;fill-opacity:1;fill-rule:nonzero;stroke:none"
         id="path190" />
      <path
         d="m 3865.1,3470.36 c -161.4,0 -281.6,-150.81 -241.14,-319.2 24.02,-99.99 110.25,-172.44 212.26,-185.53 87.84,-11.28 154.86,19.03 208.29,73.28 l 64.45,-91.83 v 287.39 c 0,131.73 -109.77,235.89 -243.86,235.89"
         style="fill:#fbc948;fill-opacity:1;fill-rule:nonzero;stroke:none"
         id="path192" />
      <path
         d="m 3944.09,3124.82 v -18.97 H 3812.7 v 18.97 c 0,4.59 2.21,7.36 6.64,8.31 2.2,0.39 16.03,1.57 41.48,3.54 v 138.03 c 0,5.37 0.17,11 0.49,16.92 l -34.16,-28.58 c -1.43,-1.21 -2.88,-2.03 -4.36,-2.46 -1.47,-0.45 -2.92,-0.66 -4.35,-0.66 -2.19,0 -4.19,0.46 -5.99,1.4 -1.81,0.92 -3.15,1.99 -4.03,3.19 l -12.81,17.58 72.44,61.59 h 33.34 v -207.43 c 22,-1.72 34.02,-2.76 36.06,-3.12 4.43,-0.95 6.64,-3.72 6.64,-8.31"
         style="fill:#ffffff;fill-opacity:1;fill-rule:nonzero;stroke:none"
         id="path194" />
    </g>
  </g>
</svg>
